<svg width="185" height="283" viewBox="0 0 185 283" fill="none" xmlns="http://www.w3.org/2000/svg">
<g clip-path="url(#clip0_58_41)">
<path d="M32.9576 144.55L41.0403 151.582C42.6679 152.998 45.1352 152.827 46.5513 151.199L53.5836 143.116C54.9997 141.489 54.8282 139.022 53.2006 137.606L45.1179 130.573C43.4903 129.157 41.023 129.329 39.6069 130.956L32.5746 139.039C31.1588 140.666 31.33 143.134 32.9576 144.55ZM16.0708 210.037L24.1538 217.07C25.7814 218.486 28.2487 218.314 29.6648 216.687L36.6971 208.604C38.1132 206.976 37.9417 204.509 36.3141 203.093L28.2311 196.06C26.6035 194.644 24.1362 194.816 22.7201 196.443L15.6878 204.526C14.2717 206.154 14.4432 208.621 16.0708 210.037ZM100.267 98.3753L84.8225 84.9381C83.1949 83.522 80.7276 83.6934 79.3115 85.3211L52.4269 116.221C51.0108 117.849 51.1823 120.316 52.8099 121.732L83.7105 148.617C85.3381 150.033 87.8053 149.862 89.2214 148.234L116.106 117.334C117.522 115.707 117.35 113.239 115.723 111.823L100.272 98.3807L100.267 98.3753ZM49.8444 79.0622L57.9273 86.0947C59.555 87.5108 62.0222 87.3393 63.4383 85.7117L70.4706 77.6291C71.8867 76.0014 71.7153 73.5342 70.0876 72.1181L62.0047 65.0855C60.377 63.6694 57.9098 63.8409 56.4937 65.4685L49.4614 73.5512C48.0453 75.1788 48.2167 77.6461 49.8444 79.0622ZM2.44774 133.538C0.820123 132.122 -1.64714 132.294 -3.06324 133.921L-29.9476 164.821C-31.3637 166.449 -31.1922 168.916 -29.5646 170.332L1.33593 197.217C2.96355 198.633 5.43081 198.462 6.84691 196.834L33.7315 165.934C35.1476 164.306 34.9762 161.839 33.3485 160.423L2.448 133.538L2.44774 133.538ZM67.9355 150.426C66.3079 149.009 63.8406 149.181 62.4245 150.809L35.5399 181.709C34.1238 183.336 34.2953 185.804 35.9229 187.22L66.8231 214.104C68.4507 215.52 70.918 215.349 72.3341 213.721L99.2184 182.821C100.635 181.194 100.463 178.727 98.8355 177.31L67.9352 150.426L67.9355 150.426ZM4.59961 55.2305L-3.48042 48.2005C-5.10804 46.7844 -7.5753 46.9559 -8.9914 48.5835L-16.0237 56.6662C-17.4398 58.2938 -17.2683 60.7611 -15.6407 62.1772L-7.56069 69.2071C-5.93308 70.6232 -3.46581 70.4518 -2.04971 68.8242L4.98258 60.7415C6.39868 59.1139 6.22722 56.6466 4.59961 55.2305ZM118.688 154.493L110.605 147.46C108.978 146.044 106.51 146.216 105.094 147.843L98.0621 155.926C96.646 157.554 96.8174 160.021 98.4451 161.437L106.528 168.469C108.155 169.885 110.623 169.714 112.039 168.086L119.071 160.004C120.487 158.376 120.316 155.909 118.688 154.493ZM-47.2651 114.842C-45.6374 116.258 -43.1702 116.087 -41.7541 114.459L-14.8695 83.5588C-13.4534 81.9312 -13.6248 79.4639 -15.2525 78.0478L-23.3325 71.0178C-24.9601 69.6017 -27.4274 69.7732 -28.8435 71.4008L-55.7281 102.301C-57.1442 103.929 -56.9727 106.396 -55.3451 107.812L-47.2651 114.842ZM-31.7562 149.046C-30.3401 147.419 -30.5116 144.952 -32.1392 143.535L-63.0371 116.653C-64.6647 115.237 -67.132 115.408 -68.5481 117.036L-95.4352 147.939C-96.8513 149.567 -96.6799 152.034 -95.0523 153.45L-64.1544 180.333C-62.5267 181.749 -60.0595 181.577 -58.6434 179.95L-31.7562 149.046ZM19.3345 68.0505C17.7069 66.6344 15.2396 66.8059 13.8235 68.4335L-13.0611 99.3337C-14.4772 100.961 -14.3057 103.429 -12.6781 104.845L18.2227 131.73C19.8503 133.146 22.3176 132.974 23.7337 131.347L50.6183 100.447C52.0344 98.819 51.863 96.3517 50.2353 94.9356L19.3345 68.0505ZM81.5609 226.926L89.6445 233.959C91.2721 235.376 93.7394 235.204 95.1555 233.576L102.188 225.494C103.604 223.866 103.432 221.399 101.805 219.983L93.7212 212.95C92.0936 211.534 89.6263 211.705 88.2102 213.333L81.1779 221.415C79.7618 223.043 79.9333 225.51 81.5609 226.926ZM-32.5302 127.662L-24.4472 134.695C-22.8196 136.111 -20.3523 135.939 -18.9362 134.312L-11.9039 126.229C-10.4878 124.601 -10.6593 122.134 -12.2869 120.718L-20.3699 113.685C-21.9975 112.269 -24.4647 112.441 -25.8808 114.068L-32.9131 122.151C-34.3292 123.779 -34.1575 126.246 -32.5302 127.662ZM128.926 102.599L135.959 94.5155C137.375 92.8879 137.203 90.4206 135.576 89.0045L127.493 81.972C125.865 80.5559 123.398 80.7273 121.982 82.355L114.949 90.4382C113.533 92.0658 113.704 94.5331 115.332 95.9492L123.415 102.982C125.042 104.398 127.51 104.226 128.926 102.599ZM3.82861 33.8486C2.41251 35.4762 2.58397 37.9435 4.21159 39.3596L35.1095 66.2421C36.7371 67.6582 39.2044 67.4868 40.6205 65.8592L67.5056 34.9583C68.9217 33.3307 68.7502 30.8635 67.1226 29.4474L36.2247 2.56481C34.5971 1.14871 32.1298 1.32017 30.7137 2.94778L3.82861 33.8486ZM106.109 82.7459L113.141 74.6632C114.557 73.0356 114.386 70.5683 112.758 69.1522L81.8575 42.2674C80.2299 40.8513 77.7626 41.0227 76.3465 42.6503L69.3142 50.733C67.8981 52.3606 68.0696 54.8279 69.6972 56.244L100.598 83.1289C102.225 84.545 104.693 84.3735 106.109 82.7459ZM154.713 165.123L181.597 134.223C183.013 132.596 182.842 130.128 181.214 128.712L150.313 101.827C148.686 100.411 146.218 100.582 144.802 102.21L117.918 133.11C116.502 134.737 116.673 137.205 118.301 138.621L149.202 165.506C150.829 166.922 153.297 166.751 154.713 165.123ZM101.414 204.11L109.497 211.142C111.124 212.558 113.591 212.387 115.008 210.759L141.892 179.859C143.308 178.231 143.137 175.764 141.509 174.348L133.427 167.316C131.799 165.9 129.332 166.071 127.916 167.699L101.031 198.599C99.6153 200.226 99.7865 202.694 101.414 204.11ZM1.01137 212.468L-14.4388 199.026C-16.0664 197.61 -18.5336 197.781 -19.9497 199.409L-26.9846 207.494C-28.4007 209.122 -28.2292 211.589 -26.6016 213.005L4.29863 239.89C5.92625 241.306 8.39351 241.134 9.80961 239.507L16.8445 231.421C18.2606 229.794 18.0891 227.326 16.4615 225.91L1.01137 212.468ZM-42.7676 179.556L-49.8025 187.642C-51.2185 189.269 -51.0471 191.737 -49.4195 193.153L-41.3365 200.185C-39.7089 201.601 -37.2416 201.43 -35.8255 199.802L-28.7907 191.717C-27.3746 190.089 -27.546 187.622 -29.1736 186.206L-37.2566 179.173C-38.8842 177.757 -41.3515 177.928 -42.7676 179.556ZM82.3354 248.311C83.7515 246.684 83.5801 244.216 81.9525 242.8L51.0513 215.915C49.4237 214.499 46.9565 214.67 45.5404 216.298L18.6532 247.201C17.2371 248.829 17.4086 251.296 19.0362 252.712L49.9373 279.597C51.5649 281.014 54.0322 280.842 55.4483 279.215L82.3354 248.311Z" fill="url(#paint0_linear_58_41)"/>
</g>
<defs>
<linearGradient id="paint0_linear_58_41" x1="52.8843" y1="282.161" x2="-97.9992" y2="150.886" gradientUnits="userSpaceOnUse">
<stop stop-color="#69EACB"/>
<stop offset="0.48" stop-color="#339966"/>
<stop offset="1" stop-color="#66CC99"/>
</linearGradient>
<clipPath id="clip0_58_41">
<rect width="200" height="200" fill="white" transform="translate(52.8853 282.162) rotate(-138.975)"/>
</clipPath>
</defs>
</svg>
