<svg width="461" height="463" viewBox="0 0 461 463" fill="none" xmlns="http://www.w3.org/2000/svg">
<g clip-path="url(#clip0_52_197)">
<path d="M223.885 216.26L212.939 230.546C210.735 233.423 211.189 237.472 213.953 239.589L227.678 250.105C230.442 252.222 234.469 251.607 236.673 248.73L247.619 234.443C249.823 231.566 249.369 227.518 246.605 225.4L232.88 214.885C230.116 212.768 226.089 213.383 223.885 216.26ZM115.492 197.221L104.546 211.508C102.342 214.385 102.796 218.434 105.56 220.551L119.285 231.067C122.049 233.184 126.076 232.569 128.28 229.692L139.226 215.405C141.43 212.528 140.976 208.479 138.212 206.362L124.487 195.846C121.723 193.729 117.696 194.344 115.492 197.221ZM304.197 321.113L325.112 293.814C327.316 290.937 326.862 286.888 324.099 284.771L271.627 244.57C268.863 242.453 264.836 243.068 262.631 245.945L220.786 300.564C218.582 303.441 219.035 307.489 221.799 309.607L274.271 349.807C277.035 351.925 281.062 351.309 283.266 348.432L304.189 321.123L304.197 321.113ZM332.278 235.298L321.332 249.585C319.128 252.462 319.582 256.511 322.346 258.628L336.071 269.144C338.835 271.261 342.862 270.646 345.066 267.769L356.012 253.482C358.216 250.605 357.762 246.556 354.999 244.439L341.273 233.923C338.509 231.806 334.482 232.421 332.278 235.298ZM239.772 164.426C241.976 161.549 241.522 157.5 238.758 155.383L186.287 115.182C183.523 113.065 179.496 113.68 177.292 116.557L135.446 171.176C133.242 174.053 133.696 178.102 136.46 180.219L188.932 220.42C191.695 222.537 195.723 221.922 197.927 219.045L239.772 164.426L239.772 164.426ZM216.719 274.775C218.923 271.898 218.469 267.849 215.705 265.732L163.233 225.531C160.47 223.414 156.442 224.029 154.238 226.906L112.393 281.525C110.189 284.401 110.643 288.45 113.407 290.568L165.878 330.768C168.642 332.885 172.669 332.27 174.873 329.393L216.718 274.774L216.719 274.775ZM368.119 157.419L379.061 143.137C381.265 140.26 380.812 136.212 378.048 134.094L364.322 123.579C361.559 121.461 357.532 122.077 355.327 124.954L344.385 139.236C342.181 142.113 342.635 146.161 345.399 148.279L359.124 158.794C361.888 160.912 365.915 160.296 368.119 157.419ZM213.621 359.079L224.566 344.792C226.77 341.915 226.317 337.866 223.553 335.749L209.827 325.233C207.063 323.116 203.036 323.732 200.832 326.608L189.887 340.895C187.683 343.772 188.136 347.821 190.9 349.938L204.625 360.454C207.389 362.571 211.416 361.955 213.621 359.079ZM266.892 79.8654C264.688 82.7423 265.142 86.7909 267.906 88.9084L320.378 129.109C323.142 131.227 327.169 130.611 329.373 127.734L340.315 113.452C342.519 110.575 342.065 106.527 339.302 104.409L286.829 64.2084C284.066 62.0909 280.039 62.7065 277.834 65.5834L266.892 79.8654ZM211.984 110.071C214.748 112.188 218.775 111.573 220.98 108.696L262.822 54.0815C265.026 51.2045 264.572 47.156 261.808 45.0385L209.331 4.83394C206.567 2.71644 202.54 3.33202 200.336 6.20895L158.494 60.8232C156.29 63.7001 156.744 67.7487 159.507 69.8662L211.984 110.071ZM348.165 183.464C350.369 180.587 349.916 176.539 347.152 174.421L294.68 134.22C291.916 132.103 287.889 132.718 285.685 135.595L243.839 190.215C241.635 193.092 242.088 197.14 244.852 199.258L297.324 239.458C300.088 241.576 304.115 240.96 306.319 238.083L348.165 183.464ZM92.4361 307.575L81.4893 321.863C79.2852 324.74 79.7389 328.788 82.5028 330.906L96.2281 341.421C98.9919 343.539 103.019 342.923 105.223 340.046L116.17 325.758C118.374 322.881 117.92 318.833 115.156 316.715L101.431 306.2C98.6673 304.082 94.6402 304.698 92.4361 307.575ZM246.938 105.91L235.992 120.198C233.788 123.075 234.242 127.123 237.006 129.241L250.731 139.756C253.495 141.874 257.522 141.258 259.726 138.381L270.672 124.094C272.876 121.217 272.423 117.168 269.659 115.051L255.933 104.535C253.17 102.418 249.142 103.034 246.938 105.91ZM299.293 368.977L313.02 379.493C315.783 381.611 319.81 380.995 322.015 378.118L332.961 363.831C335.165 360.954 334.711 356.906 331.947 354.788L318.221 344.272C315.457 342.154 311.43 342.77 309.226 345.647L298.28 359.934C296.076 362.811 296.529 366.86 299.293 368.977ZM403.069 153.264C400.305 151.146 396.278 151.762 394.074 154.639L352.232 209.253C350.028 212.13 350.482 216.179 353.246 218.296L405.719 258.498C408.483 260.615 412.51 260 414.714 257.123L456.556 202.508C458.76 199.631 458.306 195.583 455.542 193.465L403.069 153.264ZM330.194 328.646L343.919 339.162C346.683 341.279 350.71 340.663 352.914 337.787L394.76 283.168C396.964 280.291 396.51 276.242 393.746 274.125L380.021 263.609C377.257 261.492 373.23 262.107 371.026 264.984L329.18 319.603C326.976 322.48 327.43 326.529 330.194 328.646ZM198.744 419.963L251.216 460.163C253.979 462.28 258.007 461.665 260.211 458.788L302.057 404.168C304.261 401.291 303.807 397.242 301.044 395.125L248.572 354.925C245.808 352.807 241.781 353.423 239.577 356.3L197.731 410.92C195.527 413.796 195.98 417.845 198.744 419.963ZM131.181 337.262L120.236 351.548C118.031 354.425 118.485 358.473 121.249 360.591L173.721 400.792C176.485 402.909 180.512 402.293 182.716 399.416L193.661 385.13C195.865 382.253 195.412 378.205 192.648 376.087L140.176 335.887C137.412 333.769 133.385 334.385 131.181 337.262ZM110.456 172.697L131.379 145.388C133.583 142.511 133.129 138.462 130.365 136.345L116.635 125.825C113.871 123.708 109.844 124.323 107.64 127.2L65.7948 181.819C63.5906 184.696 64.0444 188.744 66.8083 190.862L80.5385 201.381C83.3024 203.499 87.3295 202.883 89.5336 200.006L110.456 172.697ZM161.265 96.0124L147.535 85.4932C144.771 83.3757 140.744 83.9913 138.54 86.8682L127.594 101.155C125.39 104.032 125.844 108.081 128.607 110.198L142.338 120.718C145.102 122.835 149.129 122.22 151.333 119.343L162.279 105.055C164.483 102.178 164.029 98.1299 161.265 96.0124ZM57.4813 311.736C60.2452 313.854 64.2723 313.238 66.4764 310.361L108.323 255.741C110.527 252.864 110.073 248.816 107.309 246.698L54.8323 206.493C52.0684 204.376 48.0413 204.992 45.8372 207.868L3.9908 262.488C1.78668 265.365 2.24042 269.414 5.00429 271.531L57.4813 311.736Z" fill="url(#paint0_linear_52_197)"/>
</g>
<defs>
<linearGradient id="paint0_linear_52_197" x1="0" y1="267.697" x2="204.327" y2="0.999966" gradientUnits="userSpaceOnUse">
<stop stop-color="#69EACB"/>
<stop offset="0.48" stop-color="#339966"/>
<stop offset="1" stop-color="#66CC99"/>
</linearGradient>
<clipPath id="clip0_52_197">
<rect width="335.976" height="322.772" fill="white" transform="translate(0 266.701) rotate(-52.543)"/>
</clipPath>
</defs>
</svg>
