<svg width="147" height="282" viewBox="0 0 147 282" fill="none" xmlns="http://www.w3.org/2000/svg">
<g clip-path="url(#clip0_52_183)">
<path d="M137.089 130.766L130.255 139.017C128.879 140.678 129.11 143.14 130.771 144.517L139.022 151.351C140.683 152.727 143.146 152.496 144.522 150.835L151.356 142.584C152.733 140.923 152.502 138.46 150.84 137.084L142.59 130.25C140.928 128.874 138.466 129.104 137.089 130.766ZM71.2126 115.47L64.3779 123.721C63.0016 125.382 63.2328 127.845 64.8942 129.221L73.1448 136.055C74.8062 137.432 77.2686 137.2 78.6449 135.539L85.4796 127.288C86.8559 125.627 86.6248 123.164 84.9633 121.788L76.7127 114.954C75.0513 113.577 72.5889 113.808 71.2126 115.47ZM184.88 196.937L197.94 181.172C199.316 179.511 199.085 177.048 197.423 175.672L165.881 149.544C164.22 148.167 161.757 148.398 160.381 150.06L134.252 181.602C132.876 183.264 133.107 185.726 134.769 187.102L166.311 213.231C167.972 214.607 170.434 214.376 171.811 212.714L184.875 196.943L184.88 196.937ZM202.967 146.062L196.132 154.313C194.756 155.974 194.987 158.437 196.648 159.813L204.899 166.647C206.56 168.024 209.023 167.793 210.399 166.131L217.234 157.88C218.61 156.219 218.379 153.756 216.718 152.38L208.467 145.546C206.806 144.169 204.343 144.4 202.967 146.062ZM147.359 99.9983C148.735 98.3369 148.504 95.8745 146.843 94.4983L115.301 68.37C113.639 66.9938 111.177 67.2249 109.801 68.8864L83.6721 100.429C82.2958 102.09 82.527 104.553 84.1884 105.929L115.731 132.057C117.392 133.434 119.854 133.203 121.231 131.541L147.359 99.9986L147.359 99.9983ZM132.063 165.876C133.439 164.214 133.208 161.752 131.546 160.376L100.004 134.247C98.3426 132.871 95.8802 133.102 94.5039 134.764L68.3755 166.306C66.9992 167.967 67.2304 170.43 68.8918 171.806L100.434 197.934C102.095 199.31 104.558 199.079 105.934 197.418L132.062 165.876L132.063 165.876ZM225.696 100.253L232.528 92.0055C233.904 90.344 233.673 87.8816 232.012 86.5054L223.761 79.6709C222.1 78.2946 219.637 78.5257 218.261 80.1872L211.429 88.4351C210.053 90.0965 210.284 92.5589 211.945 93.9351L220.196 100.77C221.857 102.146 224.32 101.915 225.696 100.253ZM129.226 216.712L136.06 208.461C137.436 206.8 137.205 204.338 135.544 202.961L127.293 196.127C125.632 194.75 123.169 194.982 121.793 196.643L114.959 204.894C113.582 206.555 113.814 209.017 115.475 210.394L123.726 217.228C125.387 218.605 127.849 218.373 129.226 216.712ZM164.846 49.8474C163.47 51.5088 163.701 53.9712 165.362 55.3475L196.905 81.4759C198.566 82.8522 201.028 82.6211 202.405 80.9596L209.237 72.7117C210.613 71.0503 210.382 68.5879 208.721 67.2117L177.178 41.0832C175.517 39.7069 173.055 39.9381 171.678 41.5995L164.846 49.8474ZM131.027 66.1799C132.689 67.5562 135.151 67.3251 136.527 65.6636L162.654 34.1238C164.03 32.4624 163.799 30 162.137 28.6237L130.592 2.4928C128.931 1.11653 126.468 1.34768 125.092 3.00911L98.9656 34.5489C97.5894 36.2103 97.8205 38.6727 99.4819 40.049L131.027 66.1799ZM213.237 115.294C214.613 113.633 214.382 111.171 212.72 109.794L181.178 83.6658C179.517 82.2895 177.054 82.5207 175.678 84.1821L149.549 115.725C148.173 117.386 148.404 119.849 150.065 121.225L181.607 147.353C183.269 148.73 185.731 148.499 187.108 146.837L213.237 115.294ZM55.9141 181.35L49.0788 189.601C47.7026 191.263 47.9337 193.725 49.5951 195.101L57.8457 201.936C59.5072 203.312 61.9696 203.081 63.3458 201.42L70.1811 193.168C71.5574 191.507 71.3262 189.044 69.6648 187.668L61.4142 180.833C59.7527 179.457 57.2904 179.688 55.9141 181.35ZM152.387 64.8884L145.552 73.1393C144.176 74.8007 144.407 77.2631 146.068 78.6394L154.319 85.4739C155.98 86.8502 158.443 86.619 159.819 84.9576L166.654 76.7067C168.03 75.0453 167.799 72.5829 166.137 71.2066L157.887 64.3721C156.225 62.9958 153.763 63.2273 152.387 64.8884ZM181.352 225.69L189.603 232.525C191.265 233.901 193.727 233.67 195.103 232.009L201.938 223.758C203.314 222.096 203.083 219.634 201.422 218.258L193.171 211.423C191.509 210.047 189.047 210.278 187.671 211.939L180.836 220.19C179.46 221.851 179.691 224.314 181.352 225.69ZM247.053 98.9648C245.391 97.5885 242.929 97.8197 241.553 99.4811L215.426 131.021C214.05 132.682 214.281 135.145 215.943 136.521L247.485 162.65C249.147 164.026 251.609 163.795 252.986 162.134L279.112 130.594C280.488 128.932 280.257 126.47 278.596 125.094L247.053 98.9648ZM200.647 202.399L208.897 209.233C210.559 210.61 213.021 210.379 214.397 208.717L240.526 177.175C241.902 175.513 241.671 173.051 240.01 171.675L231.759 164.84C230.098 163.464 227.635 163.695 226.259 165.356L200.13 196.899C198.754 198.56 198.985 201.023 200.647 202.399ZM119.471 252.984L151.012 279.112C152.674 280.488 155.136 280.257 156.513 278.596L182.642 247.052C184.018 245.391 183.787 242.929 182.125 241.552L150.584 215.424C148.922 214.048 146.46 214.279 145.083 215.94L118.954 247.484C117.578 249.145 117.809 251.607 119.471 252.984ZM79.2044 200.645L72.3701 208.895C70.9939 210.556 71.225 213.019 72.8864 214.395L104.429 240.523C106.09 241.9 108.552 241.669 109.929 240.007L116.763 231.757C118.139 230.095 117.908 227.633 116.247 226.257L84.7045 200.128C83.0433 198.752 80.5807 198.983 79.2044 200.645ZM68.4178 100.474L81.482 84.7026C82.8583 83.0412 82.6271 80.5788 80.9657 79.2025L72.7121 72.3655C71.0506 70.9892 68.5882 71.2204 67.212 72.8818L41.0835 104.424C39.7072 106.085 39.9384 108.548 41.5998 109.924L49.8534 116.761C51.5149 118.137 53.9773 117.906 55.3535 116.245L68.4178 100.474ZM100.26 55.9106L92.0063 49.0736C90.3448 47.6973 87.8825 47.9285 86.5062 49.5899L79.6714 57.8408C78.2952 59.5022 78.5263 61.9646 80.1877 63.3409L88.4413 70.1779C90.1028 71.5542 92.5652 71.323 93.9414 69.6616L100.776 61.4107C102.152 59.7493 101.921 57.2869 100.26 55.9106ZM34.5541 182.642C36.2156 184.018 38.678 183.787 40.0542 182.126L66.1834 150.582C67.5597 148.921 67.3286 146.459 65.6671 145.082L34.1219 118.951C32.4605 117.575 29.9981 117.806 28.6218 119.468L2.49262 151.011C1.11635 152.672 1.3475 155.135 3.00893 156.511L34.5541 182.642Z" fill="url(#paint0_linear_52_183)"/>
</g>
<defs>
<linearGradient id="paint0_linear_52_183" x1="0.000732422" y1="154.019" x2="127.584" y2="0.000909523" gradientUnits="userSpaceOnUse">
<stop stop-color="#69EACB"/>
<stop offset="0.48" stop-color="#339966"/>
<stop offset="1" stop-color="#66CC99"/>
</linearGradient>
<clipPath id="clip0_52_183">
<rect width="200" height="200" fill="white" transform="translate(0 154.02) rotate(-50.3628)"/>
</clipPath>
</defs>
</svg>
