<svg width="79" height="204" viewBox="0 0 79 204" fill="none" xmlns="http://www.w3.org/2000/svg">
<g clip-path="url(#clip0_52_185)">
<path d="M-27.1944 94.6289L-31.8435 100.241C-32.7797 101.371 -32.4962 103.151 -31.2102 104.216L-24.8242 109.506C-23.5383 110.571 -21.737 110.519 -20.8008 109.389L-16.1517 103.776C-15.2155 102.646 -15.499 100.866 -16.785 99.8012L-23.1709 94.5113C-24.4567 93.4462 -26.2582 93.4987 -27.1944 94.6289ZM-76.3741 80.6059L-81.0234 86.2185C-81.9596 87.3486 -81.6761 89.1283 -80.3902 90.1935L-74.0042 95.4834C-72.7182 96.5486 -70.9169 96.496 -69.9807 95.3658L-65.3315 89.7532C-64.3953 88.6231 -64.6788 86.8434 -65.9647 85.7782L-72.3507 80.4883C-73.6367 79.4231 -75.4379 79.4757 -76.3741 80.6059ZM11.0203 144.367L19.9038 133.643C20.84 132.513 20.5564 130.734 19.2705 129.668L-5.14321 109.445C-6.42915 108.38 -8.23045 108.432 -9.16664 109.562L-26.9405 131.019C-27.8767 132.149 -27.5931 133.929 -26.3072 134.994L-1.89373 155.217C-0.607778 156.282 1.19351 156.23 2.12971 155.1L11.0167 144.371L11.0203 144.367ZM21.9858 108.652L17.3365 114.264C16.4003 115.395 16.6838 117.174 17.9698 118.239L24.3558 123.529C25.6417 124.595 27.443 124.542 28.3792 123.412L33.0285 117.799C33.9647 116.669 33.6812 114.889 32.3952 113.824L26.0092 108.534C24.7233 107.469 22.922 107.522 21.9858 108.652ZM-21.0547 72.9986C-20.1185 71.8684 -20.402 70.0888 -21.688 69.0236L-46.1015 48.8003C-47.3874 47.735 -49.1887 47.7877 -50.1249 48.9179L-67.8987 70.3744C-68.8349 71.5045 -68.5514 73.2842 -67.2655 74.3494L-42.8517 94.5729C-41.5658 95.6381 -39.7645 95.5854 -38.8283 94.4553L-21.0545 72.9988L-21.0547 72.9986ZM-29.2762 119.62C-28.34 118.49 -28.6236 116.71 -29.9095 115.645L-54.3232 95.4216C-55.6092 94.3564 -57.4104 94.409 -58.3466 95.5392L-76.1203 116.996C-77.0565 118.126 -76.773 119.905 -75.487 120.971L-51.0736 141.194C-49.7876 142.259 -47.9863 142.206 -47.0501 141.076L-29.2765 119.62L-29.2762 119.62ZM36.6009 76.7901L41.2485 71.1795C42.1847 70.0493 41.9012 68.2697 40.6152 67.2045L34.2292 61.9146C32.9433 60.8493 31.142 60.902 30.2058 62.0321L25.5582 67.6427C24.622 68.7729 24.9055 70.5525 26.1915 71.6177L32.5774 76.9076C33.8634 77.9729 35.6647 77.9202 36.6009 76.7901ZM-29.0222 156.01L-24.373 150.398C-23.4368 149.267 -23.7204 147.488 -25.0063 146.423L-31.3923 141.133C-32.6782 140.067 -34.4795 140.12 -35.4157 141.25L-40.0648 146.863C-41.001 147.993 -40.7175 149.772 -39.4316 150.838L-33.0456 156.128C-31.7596 157.193 -29.9583 157.14 -29.0222 156.01ZM-10.497 37.7758C-11.4332 38.906 -11.1497 40.6856 -9.86377 41.7508L14.5499 61.9743C15.8359 63.0395 17.6372 62.9869 18.5734 61.8567L23.221 56.2461C24.1572 55.116 23.8736 53.3364 22.5877 52.2711L-1.82601 32.0477C-3.11195 30.9824 -4.91324 31.0351 -5.84944 32.1652L-10.497 37.7758ZM-34.6302 47.9513C-33.3443 49.0165 -31.543 48.9639 -30.6068 47.8337L-12.8345 26.3791C-11.8983 25.2489 -12.1818 23.4693 -13.4678 22.404L-37.8838 2.17863C-39.1697 1.1134 -40.971 1.16603 -41.9072 2.29621L-59.6795 23.7509C-60.6157 24.881 -60.3322 26.6607 -59.0463 27.7259L-34.6302 47.9513ZM28.1255 87.0216C29.0617 85.8914 28.7781 84.1118 27.4922 83.0465L3.07848 62.8231C1.79253 61.7578 -0.00876296 61.8105 -0.944959 62.9406L-18.7189 84.3974C-19.6551 85.5275 -19.3716 87.3072 -18.0857 88.3724L6.32802 108.596C7.61397 109.661 9.41527 109.608 10.3515 108.478L28.1255 87.0216ZM-84.597 127.229L-89.2466 132.842C-90.1828 133.972 -89.8993 135.752 -88.6134 136.817L-82.2274 142.107C-80.9414 143.172 -79.1402 143.12 -78.204 141.989L-73.5543 136.376C-72.6181 135.246 -72.9017 133.467 -74.1876 132.401L-80.5736 127.111C-81.8595 126.046 -83.6608 126.099 -84.597 127.229ZM-18.9725 48.0073L-23.6217 53.6199C-24.5579 54.7501 -24.2744 56.5297 -22.9885 57.5949L-16.6025 62.8848C-15.3166 63.9501 -13.5153 63.8974 -12.5791 62.7673L-7.92978 57.1547C-6.99358 56.0245 -7.2771 54.2449 -8.56305 53.1796L-14.949 47.8897C-16.235 46.8245 -18.0364 46.8773 -18.9725 48.0073ZM9.74844 164.861L16.1349 170.151C17.4208 171.216 19.2221 171.164 20.1583 170.034L24.8076 164.421C25.7438 163.291 25.4603 161.511 24.1743 160.446L17.7879 155.156C16.5019 154.09 14.7006 154.143 13.7644 155.273L9.11517 160.886C8.17897 162.016 8.4625 163.796 9.74844 164.861ZM52.257 76.8481C50.971 75.7829 49.1697 75.8355 48.2335 76.9657L30.4612 98.4203C29.525 99.5505 29.8085 101.33 31.0945 102.395L55.5087 122.619C56.7946 123.684 58.5959 123.632 59.5321 122.502L77.3044 101.047C78.2406 99.9168 77.9571 98.1372 76.6711 97.072L52.257 76.8481ZM22.8734 149.017L29.2594 154.307C30.5454 155.372 32.3467 155.32 33.2829 154.19L51.0567 132.733C51.9929 131.603 51.7094 129.823 50.4234 128.758L44.0374 123.468C42.7515 122.403 40.9502 122.456 40.014 123.586L22.2402 145.042C21.304 146.172 21.5875 147.952 22.8734 149.017ZM-34.5297 181.618L-10.1162 201.841C-8.83028 202.907 -7.02899 202.854 -6.0928 201.724L11.6814 180.267C12.6176 179.137 12.334 177.357 11.0481 176.292L-13.3654 156.069C-14.6513 155.003 -16.4526 155.056 -17.3888 156.186L-35.163 177.643C-36.099 178.773 -35.8157 180.553 -34.5297 181.618ZM-66.5702 142.163L-71.2191 147.775C-72.1553 148.906 -71.8718 150.685 -70.5859 151.75L-46.1722 171.974C-44.8862 173.039 -43.0849 172.987 -42.1487 171.856L-37.4998 166.244C-36.5636 165.114 -36.8471 163.334 -38.1331 162.269L-62.5468 142.046C-63.8325 140.981 -65.634 141.033 -66.5702 142.163ZM-79.1215 69.7039L-70.2347 58.9758C-69.2985 57.8456 -69.582 56.066 -70.8679 55.0008L-77.2562 49.7089C-78.5422 48.6437 -80.3435 48.6963 -81.2797 49.8265L-99.0533 71.2828C-99.9895 72.413 -99.706 74.1926 -98.4201 75.2578L-92.0318 80.5497C-90.7458 81.6149 -88.9445 81.5623 -88.0083 80.4321L-79.1215 69.7039ZM-57.7432 39.1567L-64.1315 33.8648C-65.4175 32.7996 -67.2188 32.8522 -68.155 33.9824L-72.8042 39.595C-73.7404 40.7252 -73.4569 42.5048 -72.171 43.57L-65.7827 48.8619C-64.4967 49.9271 -62.6954 49.8744 -61.7592 48.7443L-57.11 43.1317C-56.1738 42.0015 -56.4573 40.2219 -57.7432 39.1567ZM-100.255 127.173C-98.9692 128.239 -97.1679 128.186 -96.2317 127.056L-78.4575 105.599C-77.5213 104.469 -77.8049 102.689 -79.0908 101.624L-103.507 81.3986C-104.793 80.3333 -106.594 80.386 -107.53 81.5161L-125.304 102.973C-126.241 104.103 -125.957 105.883 -124.671 106.948L-100.255 127.173Z" fill="url(#paint0_linear_52_185)"/>
</g>
<defs>
<linearGradient id="paint0_linear_52_185" x1="-127" y1="105.019" x2="-40.2121" y2="0.249907" gradientUnits="userSpaceOnUse">
<stop stop-color="#69EACB"/>
<stop offset="0.48" stop-color="#339966"/>
<stop offset="1" stop-color="#66CC99"/>
</linearGradient>
<clipPath id="clip0_52_185">
<rect width="136.048" height="154.8" fill="white" transform="translate(-127 105.02) rotate(-50.3628)"/>
</clipPath>
</defs>
</svg>
