<svg width="23" height="23" viewBox="0 0 23 23" fill="none" xmlns="http://www.w3.org/2000/svg">
<g clip-path="url(#clip0_63_62)">
<path d="M11.5 0C10.5913 0 9.85714 0.642383 9.85714 1.4375V2.3C6.10937 2.96484 3.28571 5.8668 3.28571 9.34375V10.1883C3.28571 12.2996 2.39754 14.3391 0.795753 15.9203L0.415842 16.2932C-0.0154079 16.7154 -0.118087 17.3219 0.143744 17.8385C0.405574 18.3551 0.995976 18.6875 1.64285 18.6875H21.3571C22.004 18.6875 22.5893 18.3551 22.8562 17.8385C23.1232 17.3219 23.0154 16.7154 22.5841 16.2932L22.2042 15.9203C20.6024 14.3391 19.7143 12.3041 19.7143 10.1883V9.34375C19.7143 5.8668 16.8906 2.96484 13.1429 2.3V1.4375C13.1429 0.642383 12.4087 0 11.5 0ZM13.8257 22.16C14.4417 21.6209 14.7857 20.8887 14.7857 20.125H11.5H8.21428C8.21428 20.8887 8.55825 21.6209 9.17432 22.16C9.7904 22.699 10.6272 23 11.5 23C12.3728 23 13.2096 22.699 13.8257 22.16Z" fill="#006633"/>
</g>
<defs>
<clipPath id="clip0_63_62">
<rect width="23" height="23" fill="white"/>
</clipPath>
</defs>
</svg>
