<svg width="29" height="31" viewBox="0 0 29 31" fill="none" xmlns="http://www.w3.org/2000/svg">
<g clip-path="url(#clip0_91_242)">
<path d="M14.5 3.875C8.49609 3.875 3.625 9.08203 3.625 15.5C3.625 21.918 8.49609 27.125 14.5 27.125C15.5025 27.125 16.3125 27.9908 16.3125 29.0625C16.3125 30.1342 15.5025 31 14.5 31C6.49102 31 0 24.0613 0 15.5C0 6.93867 6.49102 0 14.5 0C22.509 0 29 6.93867 29 15.5V17.4375C29 20.6465 26.5645 23.25 23.5625 23.25C21.9029 23.25 20.4133 22.4508 19.4164 21.1975C18.125 22.4689 16.3975 23.25 14.5 23.25C10.4955 23.25 7.25 19.7807 7.25 15.5C7.25 11.2193 10.4955 7.75 14.5 7.75C16.0803 7.75 17.5416 8.28887 18.7311 9.20918C19.0539 8.90645 19.473 8.71875 19.9375 8.71875C20.94 8.71875 21.75 9.58457 21.75 10.6562V15.5V17.4375C21.75 18.5092 22.56 19.375 23.5625 19.375C24.565 19.375 25.375 18.5092 25.375 17.4375V15.5C25.375 9.08203 20.5039 3.875 14.5 3.875ZM18.125 15.5C18.125 14.4723 17.7431 13.4867 17.0633 12.76C16.3834 12.0333 15.4614 11.625 14.5 11.625C13.5386 11.625 12.6166 12.0333 11.9367 12.76C11.2569 13.4867 10.875 14.4723 10.875 15.5C10.875 16.5277 11.2569 17.5133 11.9367 18.24C12.6166 18.9667 13.5386 19.375 14.5 19.375C15.4614 19.375 16.3834 18.9667 17.0633 18.24C17.7431 17.5133 18.125 16.5277 18.125 15.5Z" fill="#006633"/>
</g>
<defs>
<clipPath id="clip0_91_242">
<rect width="29" height="31" fill="white"/>
</clipPath>
</defs>
</svg>
