<svg width="149" height="136" viewBox="0 0 149 136" fill="none" xmlns="http://www.w3.org/2000/svg">
<path d="M74.5 8.5C38.5014 8.5 9.3125 35.1422 9.3125 68C9.3125 100.858 38.5014 127.5 74.5 127.5C110.499 127.5 139.688 100.858 139.688 68C139.688 35.1422 110.499 8.5 74.5 8.5ZM95.4677 68.9164L63.6888 90.0203C63.5145 90.1346 63.3092 90.2028 63.0953 90.2175C62.8813 90.2322 62.6671 90.1927 62.4761 90.1035C62.2851 90.0143 62.1248 89.8787 62.0127 89.7118C61.9006 89.5448 61.8412 89.3529 61.8408 89.157V46.9758C61.8401 46.7796 61.8989 46.587 62.0108 46.4195C62.1227 46.2519 62.2832 46.1159 62.4745 46.0265C62.6659 45.9371 62.8806 45.8978 63.095 45.913C63.3093 45.9282 63.5148 45.9972 63.6888 46.1125L95.4677 67.2031C95.6178 67.3 95.7403 67.4284 95.8248 67.5775C95.9093 67.7265 95.9535 67.8919 95.9535 68.0598C95.9535 68.2276 95.9093 68.393 95.8248 68.5421C95.7403 68.6911 95.6178 68.8195 95.4677 68.9164Z" fill="#006633" fill-opacity="0.57"/>
</svg>
