<svg width="208" height="255" viewBox="0 0 208 255" fill="none" xmlns="http://www.w3.org/2000/svg">
<path d="M5.87879 152.65C6.17128 152.361 6.40383 152.017 6.56309 151.638C6.72234 151.259 6.80519 150.852 6.80687 150.44V103.992C6.80687 103.58 6.7257 103.172 6.56801 102.792C6.41033 102.411 6.1792 102.065 5.88783 101.774C5.59646 101.482 5.25055 101.251 4.86986 101.093C4.48916 100.936 4.08114 100.855 3.66908 100.855C3.25702 100.855 2.84899 100.936 2.4683 101.093C2.08761 101.251 1.7417 101.482 1.45033 101.774C0.861882 102.362 0.531296 103.16 0.531294 103.992V150.44C0.529602 150.853 0.60961 151.262 0.766699 151.643C0.923788 152.025 1.15485 152.371 1.44656 152.663C1.73827 152.955 2.08485 153.186 2.46631 153.343C2.84776 153.5 3.25655 153.58 3.66908 153.578C4.08036 153.577 4.48725 153.494 4.86644 153.334C5.24563 153.175 5.58966 152.943 5.87879 152.65ZM31.0253 177.797C31.3178 177.508 31.5503 177.164 31.7096 176.784C31.8688 176.405 31.9517 175.998 31.9534 175.587V78.8459C31.9534 78.4338 31.8722 78.0258 31.7145 77.6451C31.5568 77.2644 31.3257 76.9185 31.0343 76.6272C30.7429 76.3358 30.397 76.1047 30.0163 75.947C29.6357 75.7893 29.2276 75.7081 28.8156 75.7081C28.4035 75.7081 27.9955 75.7893 27.6148 75.947C27.2341 76.1047 26.8882 76.3358 26.5968 76.6272C26.3054 76.9185 26.0743 77.2644 25.9166 77.6451C25.7589 78.0258 25.6778 78.4338 25.6778 78.8459V175.587C25.6761 175.999 25.7561 176.408 25.9132 176.79C26.0703 177.171 26.3013 177.518 26.593 177.809C26.8848 178.101 27.2313 178.332 27.6128 178.489C27.9942 178.646 28.403 178.726 28.8156 178.725C29.2268 178.723 29.6337 178.64 30.0129 178.481C30.3921 178.322 30.7361 178.089 31.0253 177.797ZM56.1276 202.899C56.7297 202.351 57.0944 201.59 57.144 200.778V53.6552C57.144 52.823 56.8134 52.0249 56.225 51.4365C55.6365 50.848 54.8384 50.5174 54.0062 50.5174C53.1741 50.5174 52.3759 50.848 51.7875 51.4365C51.199 52.0249 50.8685 52.823 50.8685 53.6552L50.7801 200.689C50.7784 201.102 50.8584 201.511 51.0155 201.892C51.1726 202.273 51.4036 202.62 51.6953 202.912C51.987 203.203 52.3336 203.435 52.7151 203.592C53.0965 203.749 53.5053 203.829 53.9179 203.827C54.3291 203.825 54.736 203.743 55.1152 203.583C55.4944 203.424 55.8384 203.191 56.1276 202.899ZM81.2741 228.045C81.5665 227.756 81.7991 227.412 81.9583 227.033C82.1176 226.654 82.2005 226.247 82.2021 225.836V28.5971C82.2021 28.1851 82.121 27.777 81.9633 27.3964C81.8056 27.0157 81.5745 26.6698 81.2831 26.3784C80.9917 26.087 80.6458 25.8559 80.2651 25.6982C79.8844 25.5405 79.4764 25.4593 79.0643 25.4593C78.6523 25.4593 78.2443 25.5405 77.8636 25.6982C77.4829 25.8559 77.137 26.087 76.8456 26.3784C76.5542 26.6698 76.3231 27.0157 76.1654 27.3964C76.0077 27.777 75.9265 28.1851 75.9265 28.5971V225.836C75.9249 226.248 76.0049 226.657 76.162 227.039C76.319 227.42 76.5501 227.767 76.8418 228.058C77.1335 228.35 77.4801 228.581 77.8616 228.738C78.243 228.895 78.6518 228.975 79.0643 228.974C79.4756 228.972 79.8825 228.889 80.2617 228.73C80.6409 228.57 80.9849 228.338 81.2741 228.045ZM104.189 0.334965C103.776 0.333276 103.367 0.413281 102.986 0.570373C102.604 0.727454 102.258 0.958512 101.966 1.25022C101.674 1.54194 101.443 1.88851 101.286 2.26996C101.129 2.65142 101.049 3.06021 101.051 3.47274V250.96C101.049 251.373 101.129 251.781 101.286 252.163C101.443 252.544 101.674 252.891 101.966 253.183C102.258 253.474 102.604 253.705 102.986 253.862C103.367 254.02 103.776 254.1 104.189 254.098C104.601 254.1 105.01 254.02 105.391 253.862C105.773 253.705 106.12 253.474 106.411 253.183C106.703 252.891 106.934 252.544 107.091 252.163C107.248 251.781 107.328 251.373 107.327 250.96V3.47275C107.328 3.06021 107.248 2.65143 107.091 2.26997C106.934 1.88851 106.703 1.54193 106.411 1.25022C106.12 0.958517 105.773 0.727453 105.391 0.570369C105.01 0.413275 104.601 0.333269 104.189 0.334965ZM126.175 28.5971V225.836C126.174 226.248 126.254 226.657 126.411 227.039C126.568 227.42 126.799 227.767 127.091 228.058C127.382 228.35 127.729 228.581 128.11 228.738C128.492 228.895 128.901 228.975 129.313 228.974C129.726 228.975 130.134 228.895 130.516 228.738C130.897 228.581 131.244 228.35 131.536 228.058C131.827 227.767 132.058 227.42 132.215 227.039C132.373 226.657 132.453 226.248 132.451 225.836V28.5971C132.451 27.7649 132.12 26.9668 131.532 26.3784C130.943 25.7899 130.145 25.4593 129.313 25.4594C128.481 25.4593 127.683 25.7899 127.094 26.3784C126.506 26.9668 126.175 27.7649 126.175 28.5971ZM151.233 53.6552V200.778C151.232 201.19 151.312 201.599 151.469 201.98C151.626 202.362 151.857 202.708 152.149 203C152.44 203.292 152.787 203.523 153.168 203.68C153.55 203.837 153.959 203.917 154.371 203.915C154.784 203.917 155.193 203.837 155.574 203.68C155.955 203.523 156.302 203.292 156.594 203C156.885 202.708 157.117 202.362 157.274 201.98C157.431 201.599 157.511 201.19 157.509 200.778L157.597 53.7436C157.609 52.8997 157.285 52.0857 156.697 51.4807C156.108 50.8756 155.304 50.5292 154.46 50.5174C153.616 50.5057 152.802 50.8297 152.197 51.4182C151.592 52.0066 151.245 52.8113 151.233 53.6552ZM176.424 78.8459V175.587C176.422 175.999 176.502 176.408 176.66 176.79C176.817 177.171 177.048 177.518 177.339 177.809C177.631 178.101 177.978 178.332 178.359 178.489C178.741 178.646 179.149 178.726 179.562 178.725C179.974 178.726 180.383 178.646 180.765 178.489C181.146 178.332 181.493 178.101 181.784 177.809C182.076 177.518 182.307 177.171 182.464 176.79C182.621 176.408 182.701 175.999 182.7 175.587V78.8459C182.7 78.0137 182.369 77.2156 181.781 76.6272C181.192 76.0387 180.394 75.7081 179.562 75.7081C178.73 75.7081 177.932 76.0387 177.343 76.6272C176.755 77.2156 176.424 78.0137 176.424 78.8459ZM201.571 103.992V150.44C201.569 150.853 201.649 151.262 201.806 151.643C201.963 152.025 202.194 152.371 202.486 152.663C202.778 152.955 203.124 153.186 203.506 153.343C203.887 153.5 204.296 153.58 204.708 153.578C205.121 153.58 205.53 153.5 205.911 153.343C206.293 153.186 206.639 152.955 206.931 152.663C207.223 152.371 207.454 152.025 207.611 151.643C207.768 151.262 207.848 150.853 207.846 150.44V103.992C207.846 103.16 207.516 102.362 206.927 101.774C206.339 101.185 205.541 100.855 204.708 100.855C203.876 100.855 203.078 101.185 202.49 101.774C201.901 102.362 201.571 103.16 201.571 103.992Z" fill="url(#paint0_linear_52_209)"/>
<defs>
<linearGradient id="paint0_linear_52_209" x1="-24" y1="127.216" x2="104.216" y2="-0.999993" gradientUnits="userSpaceOnUse">
<stop stop-color="#69EACB"/>
<stop offset="0.48" stop-color="#339966"/>
<stop offset="1" stop-color="#66CC99"/>
</linearGradient>
</defs>
</svg>
