<svg width="87" height="204" viewBox="0 0 87 204" fill="none" xmlns="http://www.w3.org/2000/svg">
<g clip-path="url(#clip0_52_214)">
<path d="M-19.1944 94.3796L-23.8435 99.992C-24.7797 101.122 -24.4962 102.902 -23.2102 103.967L-16.8242 109.257C-15.5383 110.322 -13.737 110.27 -12.8008 109.139L-8.1517 103.527C-7.2155 102.397 -7.49902 100.617 -8.78496 99.5519L-15.1709 94.262C-16.4567 93.197 -18.2582 93.2494 -19.1944 94.3796ZM-68.3741 80.3566L-73.0234 85.9692C-73.9596 87.0994 -73.6761 88.879 -72.3902 89.9442L-66.0042 95.2341C-64.7182 96.2994 -62.9169 96.2467 -61.9807 95.1166L-57.3315 89.504C-56.3953 88.3738 -56.6788 86.5942 -57.9647 85.5289L-64.3507 80.239C-65.6367 79.1738 -67.4379 79.2264 -68.3741 80.3566ZM19.0203 144.118L27.9038 133.394C28.84 132.264 28.5564 130.484 27.2705 129.419L2.85679 109.196C1.57085 108.13 -0.230447 108.183 -1.16664 109.313L-18.9405 130.77C-19.8767 131.9 -19.5931 133.679 -18.3072 134.745L6.10627 154.968C7.39222 156.033 9.19351 155.981 10.1297 154.85L19.0167 144.122L19.0203 144.118ZM29.9858 108.403L25.3365 114.015C24.4003 115.145 24.6838 116.925 25.9698 117.99L32.3558 123.28C33.6417 124.345 35.443 124.293 36.3792 123.163L41.0285 117.55C41.9647 116.42 41.6812 114.64 40.3952 113.575L34.0092 108.285C32.7233 107.22 30.922 107.272 29.9858 108.403ZM-13.0547 72.7493C-12.1185 71.6191 -12.402 69.8395 -13.688 68.7743L-38.1015 48.551C-39.3874 47.4858 -41.1887 47.5384 -42.1249 48.6686L-59.8987 70.1251C-60.8349 71.2553 -60.5514 73.0349 -59.2655 74.1001L-34.8517 94.3236C-33.5658 95.3888 -31.7645 95.3362 -30.8283 94.206L-13.0545 72.7495L-13.0547 72.7493ZM-21.2762 119.371C-20.34 118.241 -20.6236 116.461 -21.9095 115.396L-46.3232 95.1724C-47.6092 94.1071 -49.4104 94.1598 -50.3466 95.29L-68.1203 116.746C-69.0565 117.876 -68.773 119.656 -67.487 120.721L-43.0736 140.945C-41.7876 142.01 -39.9863 141.957 -39.0501 140.827L-21.2765 119.371L-21.2762 119.371ZM44.6009 76.5408L49.2485 70.9302C50.1847 69.8001 49.9012 68.0204 48.6152 66.9552L42.2292 61.6653C40.9433 60.6001 39.142 60.6527 38.2058 61.7829L33.5582 67.3934C32.622 68.5236 32.9055 70.3032 34.1915 71.3684L40.5774 76.6584C41.8634 77.7236 43.6647 77.671 44.6009 76.5408ZM-21.0222 155.761L-16.373 150.148C-15.4368 149.018 -15.7204 147.239 -17.0063 146.173L-23.3923 140.883C-24.6782 139.818 -26.4795 139.871 -27.4157 141.001L-32.0648 146.613C-33.001 147.744 -32.7175 149.523 -31.4316 150.588L-25.0456 155.878C-23.7596 156.944 -21.9583 156.891 -21.0222 155.761ZM-2.49703 37.5265C-3.43322 38.6567 -3.14971 40.4363 -1.86377 41.5015L22.5499 61.725C23.8359 62.7902 25.6372 62.7376 26.5734 61.6074L31.221 55.9969C32.1572 54.8667 31.8736 53.0871 30.5877 52.0218L6.17399 31.7984C4.88805 30.7332 3.08676 30.7858 2.15056 31.916L-2.49703 37.5265ZM-26.6302 47.702C-25.3443 48.7673 -23.543 48.7146 -22.6068 47.5844L-4.8345 26.1298C-3.8983 24.9996 -4.18182 23.22 -5.46777 22.1548L-29.8838 1.92936C-31.1697 0.86413 -32.971 0.916766 -33.9072 2.04694L-51.6795 23.5016C-52.6157 24.6318 -52.3322 26.4114 -51.0463 27.4766L-26.6302 47.702ZM36.1255 86.7723C37.0617 85.6421 36.7781 83.8625 35.4922 82.7973L11.0785 62.5738C9.79253 61.5086 7.99124 61.5612 7.05504 62.6914L-10.7189 84.1481C-11.6551 85.2783 -11.3716 87.0579 -10.0857 88.1231L14.328 108.347C15.614 109.412 17.4153 109.359 18.3515 108.229L36.1255 86.7723ZM-76.597 126.98L-81.2466 132.593C-82.1828 133.723 -81.8993 135.503 -80.6134 136.568L-74.2274 141.858C-72.9414 142.923 -71.1402 142.87 -70.204 141.74L-65.5543 136.127C-64.6181 134.997 -64.9017 133.217 -66.1876 132.152L-72.5736 126.862C-73.8595 125.797 -75.6608 125.85 -76.597 126.98ZM-10.9725 47.758L-15.6217 53.3706C-16.5579 54.5008 -16.2744 56.2804 -14.9885 57.3457L-8.6025 62.6356C-7.31655 63.7008 -5.51526 63.6482 -4.57906 62.518L0.0702204 56.9054C1.00642 55.7752 0.7229 53.9956 -0.563047 52.9304L-6.94902 47.6404C-8.23497 46.5752 -10.0364 46.6281 -10.9725 47.758ZM17.7484 164.612L24.1349 169.902C25.4208 170.967 27.2221 170.914 28.1583 169.784L32.8076 164.172C33.7438 163.042 33.4603 161.262 32.1743 160.197L25.7879 154.906C24.5019 153.841 22.7006 153.894 21.7644 155.024L17.1152 160.637C16.179 161.767 16.4625 163.546 17.7484 164.612ZM60.257 76.5988C58.971 75.5336 57.1697 75.5862 56.2335 76.7164L38.4612 98.1711C37.525 99.3012 37.8085 101.081 39.0945 102.146L63.5087 122.37C64.7946 123.435 66.5959 123.383 67.5321 122.252L85.3044 100.798C86.2406 99.6675 85.9571 97.8879 84.6711 96.8227L60.257 76.5988ZM30.8734 148.768L37.2594 154.058C38.5454 155.123 40.3467 155.071 41.2829 153.94L59.0567 132.484C59.9929 131.354 59.7094 129.574 58.4234 128.509L52.0374 123.219C50.7515 122.154 48.9502 122.206 48.014 123.337L30.2402 144.793C29.304 145.923 29.5875 147.703 30.8734 148.768ZM-26.5297 181.369L-2.11623 201.592C-0.830283 202.657 0.971007 202.605 1.9072 201.475L19.6814 180.018C20.6176 178.887 20.334 177.108 19.0481 176.043L-5.36538 155.819C-6.65133 154.754 -8.45262 154.807 -9.38881 155.937L-27.163 177.394C-28.099 178.524 -27.8157 180.304 -26.5297 181.369ZM-58.5702 141.914L-63.2191 147.526C-64.1553 148.656 -63.8718 150.436 -62.5859 151.501L-38.1722 171.725C-36.8862 172.79 -35.0849 172.737 -34.1487 171.607L-29.4998 165.995C-28.5636 164.865 -28.8471 163.085 -30.1331 162.02L-54.5468 141.796C-55.8325 140.731 -57.634 140.784 -58.5702 141.914ZM-71.1215 69.4547L-62.2347 58.7265C-61.2985 57.5963 -61.582 55.8167 -62.8679 54.7515L-69.2562 49.4596C-70.5422 48.3944 -72.3435 48.447 -73.2797 49.5772L-91.0533 71.0335C-91.9895 72.1637 -91.706 73.9433 -90.4201 75.0085L-84.0318 80.3004C-82.7458 81.3656 -80.9445 81.313 -80.0083 80.1828L-71.1215 69.4547ZM-49.7432 38.9074L-56.1315 33.6155C-57.4175 32.5503 -59.2188 32.6029 -60.155 33.7331L-64.8042 39.3457C-65.7404 40.4759 -65.4569 42.2555 -64.171 43.3207L-57.7827 48.6126C-56.4967 49.6778 -54.6954 49.6252 -53.7592 48.495L-49.11 42.8824C-48.1738 41.7522 -48.4573 39.9726 -49.7432 38.9074ZM-92.2551 126.924C-90.9692 127.989 -89.1679 127.937 -88.2317 126.807L-70.4575 105.35C-69.5213 104.22 -69.8049 102.44 -71.0908 101.375L-95.5068 81.1493C-96.7928 80.0841 -98.5941 80.1367 -99.5303 81.2669L-117.304 102.724C-118.241 103.854 -117.957 105.634 -116.671 106.699L-92.2551 126.924Z" fill="url(#paint0_linear_52_214)"/>
</g>
<defs>
<linearGradient id="paint0_linear_52_214" x1="-119" y1="104.77" x2="-32.2121" y2="0.000638993" gradientUnits="userSpaceOnUse">
<stop stop-color="#69EACB"/>
<stop offset="0.48" stop-color="#339966"/>
<stop offset="1" stop-color="#66CC99"/>
</linearGradient>
<clipPath id="clip0_52_214">
<rect width="136.048" height="154.8" fill="white" transform="translate(-119 104.771) rotate(-50.3628)"/>
</clipPath>
</defs>
</svg>
